<svg xmlns="http://www.w3.org/2000/svg" viewBox="0 0 64 64" id="bookmark"><path fill="#F15439" d="m39 26.949 12 10.429V3H27v34.379l12-10.43zm-1.457-11.884L39 10.511l1.457 4.554h4.716l-3.816 2.814 1.457 4.554L39 19.618l-3.815 2.814 1.457-4.554-3.816-2.814h4.717z"></path><path fill="#FFF" d="m51 37.379-12-10.43-12 10.43V3H10a5 5 0 0 0-5 5v47.95A4.95 4.95 0 0 1 9.95 51H59V3h-8v34.379z"></path><path fill="#FFF" d="M35.185 22.433 39 19.618l3.815 2.815-1.457-4.554 3.816-2.814h-4.717L39 10.511l-1.457 4.554h-4.717l3.816 2.814zM5 56v.05A4.95 4.95 0 0 0 9.95 61H10a5 5 0 0 1-5-5z"></path><path fill="#399BB9" d="M5 55.95V56a5 5 0 0 0 5 5h49V51H9.95A4.95 4.95 0 0 0 5 55.95z"></path><path d="M44.71 25.073 39 20.861l-5.71 4.211 2.181-6.815-5.686-4.193h7.027L39 7.231l2.187 6.834h7.027l-5.686 4.193 2.182 6.815zM39 18.376l1.92 1.417-.733-2.293 1.946-1.435h-2.405L39 13.792l-.728 2.273h-2.405l1.946 1.435-.734 2.292L39 18.376z"></path><path d="M60 62H10c-3.309 0-6-2.691-6-6V8c0-3.309 2.691-6 6-6h50v60zM10 4C7.794 4 6 5.794 6 8v48c0 2.206 1.794 4 4 4h48V4H10z"></path><path d="M60 62H9.95A5.957 5.957 0 0 1 4 56.05C4 52.669 6.669 50 9.95 50H60v12zM9.95 52A3.955 3.955 0 0 0 6 55.95C6 58.228 7.772 60 9.95 60H58v-8H9.95zM52 39.573 39 28.274 26 39.573V3h2v32.185l11-9.56 11 9.56V3h2z"></path></svg>