<svg xmlns="http://www.w3.org/2000/svg" data-name="Layer 1" viewBox="0 0 100 100" id="team"><path fill="#ec6568" d="M28.16,71.12V63.79c0-4.34,2.34-8.38,6.58-11.38.45-.32.91-.61,1.39-.9l.31-.18c.47-.27,1-.53,1.45-.77l.24-.11c.47-.22.94-.42,1.43-.61l.27-.11c.54-.21,1.08-.39,1.63-.56l.14-.05c-3.24-4.23-9.7-7-16.76-7a23.67,23.67,0,0,0-13.58,4c-3.45,2.45-5.35,5.65-5.35,9V68.46a65.57,65.57,0,0,0,18.78,2.75C25.85,71.21,27,71.18,28.16,71.12Z"></path><circle cx="24.84" cy="28.05" r="7.93" fill="#ec6568"></circle><path fill="#333" d="M24.84,38.89A10.84,10.84,0,1,0,14,28.05,10.86,10.86,0,0,0,24.84,38.89Zm0-18.78a7.94,7.94,0,1,1-7.93,7.94A7.94,7.94,0,0,1,24.84,20.11Z"></path><path fill="#fecb37" d="M75.17,42.14a23.62,23.62,0,0,0-13.58,4,14.9,14.9,0,0,0-3.19,3l.78.26.63.21c.34.12.67.26,1,.4l.47.19c.48.2.94.42,1.38.65l.49.27c.28.15.56.3.83.47l.54.34c.23.15.47.3.69.46s.35.26.52.38l.62.48.49.42.56.51.44.45c.17.17.34.35.5.53l.4.47.45.57c.12.16.23.32.34.49s.27.39.39.59l.3.5c.11.21.22.42.32.64s.17.33.24.5.18.45.27.67.13.34.18.51.14.48.2.72.09.32.13.49.1.54.14.82l.06.41c0,.42.07.84.07,1.27v7.34c1.11.05,2.19.07,3.29.08a66.21,66.21,0,0,0,19-2.75V55.11C94.09,48,85.6,42.14,75.17,42.14Z"></path><path fill="#333" d="M75.17,39.24A26.58,26.58,0,0,0,59.9,43.73a17,17,0,0,0-4.54,4.67,30.64,30.64,0,0,0-10.72,0c-3.56-5.6-11.18-9.16-19.8-9.16A26.52,26.52,0,0,0,9.58,43.73C5.34,46.74,3,50.78,3,55.11V70.59l1,.32a68.35,68.35,0,0,0,20.68,3.21c1.14,0,2.3,0,3.47-.1v5.24l1,.33a68.34,68.34,0,0,0,20.68,3.2H50a68.68,68.68,0,0,0,20.86-3.2l1-.32V74c1.11,0,2.22.08,3.29.09A68.68,68.68,0,0,0,96,70.91l1-.32V55.11C97,46.36,87.21,39.24,75.17,39.24ZM94.09,68.46a66.21,66.21,0,0,1-19,2.75c-1.1,0-2.18,0-3.29-.08V63.79c0-.43,0-.85-.07-1.27l-.06-.41c0-.28-.08-.55-.14-.82s-.08-.33-.13-.49-.12-.48-.2-.72-.12-.34-.18-.51-.17-.45-.27-.67-.16-.34-.24-.5-.21-.43-.32-.64l-.3-.5c-.12-.2-.25-.4-.39-.59s-.22-.33-.34-.49l-.45-.57-.4-.47c-.16-.18-.33-.36-.5-.53l-.44-.45-.56-.51-.49-.42-.62-.48c-.17-.12-.34-.26-.52-.38s-.46-.31-.69-.46L64,51.57c-.27-.17-.55-.32-.83-.47l-.49-.27c-.44-.23-.9-.45-1.38-.65L60.82,50c-.34-.14-.67-.28-1-.4l-.63-.21-.78-.26a14.9,14.9,0,0,1,3.19-3,23.62,23.62,0,0,1,13.58-4c10.43,0,18.92,5.82,18.92,13ZM5.91,55.11c0-3.36,1.9-6.56,5.35-9a23.67,23.67,0,0,1,13.58-4c7.06,0,13.52,2.75,16.76,7l-.14.05c-.55.17-1.09.35-1.63.56l-.27.11c-.49.19-1,.39-1.43.61l-.24.11c-.5.24-1,.5-1.45.77l-.31.18c-.48.29-.94.58-1.39.9-4.24,3-6.58,7-6.58,11.38v7.33c-1.17.06-2.31.09-3.47.09A65.57,65.57,0,0,1,5.91,68.46ZM31.07,73.86V63.79c0-3.37,1.9-6.57,5.36-9a21.42,21.42,0,0,1,7.8-3.34,27.1,27.1,0,0,1,11.55,0c7.74,1.71,13.15,6.78,13.15,12.34V77.14a66.59,66.59,0,0,1-19.08,2.75,65.92,65.92,0,0,1-18.78-2.75Z"></path><circle cx="75.16" cy="28.05" r="7.93" fill="#fecb37"></circle><path fill="#333" d="M75.16,38.89A10.84,10.84,0,1,0,64.33,28.05,10.86,10.86,0,0,0,75.16,38.89Zm0-18.78a7.94,7.94,0,1,1-7.93,7.94A7.95,7.95,0,0,1,75.16,20.11Z"></path><path fill="#50b792" d="M68.93 77.14V63.79c0-5.56-5.41-10.63-13.15-12.34a27.1 27.1 0 00-11.55 0 21.42 21.42 0 00-7.8 3.34c-3.46 2.44-5.36 5.64-5.36 9V77.14a65.92 65.92 0 0018.78 2.75A66.59 66.59 0 0068.93 77.14zM50 44.65a7.93 7.93 0 10-7.93-7.93A7.93 7.93 0 0050 44.65z"></path><path fill="#333" d="M50,47.56A10.84,10.84,0,1,0,39.16,36.72,10.85,10.85,0,0,0,50,47.56Zm0-18.77a7.93,7.93,0,1,1-7.93,7.93A7.94,7.94,0,0,1,50,28.79Z"></path></svg>