<svg xmlns="http://www.w3.org/2000/svg" viewBox="0 0 64 64" id="teamwork"><linearGradient id="a" x1="32.302" x2="32.302" y1="9.562" y2="61.569" gradientUnits="userSpaceOnUse"><stop offset="0" stop-color="#fff" stop-opacity=".25"></stop><stop offset="1" stop-color="#ff4b4d" stop-opacity=".7"></stop></linearGradient><path fill="url(#a)" d="M5 33.2c-.5-2.4-1.6-4.7-1.8-7.1-.2-3.2 1.4-6.4 3.8-8.7 2.3-2.3 5.3-3.7 8.4-4.8 10.8-4 23.1-4 33.9 0 3.1 1.1 6.2 2.6 8.6 5 2.4 2.3 4 5.6 3.7 8.9-.3 3.5-2.6 6.5-4.7 9.3-2.1 2.8-4.2 6-4 9.5.1 2.1 1.1 4.2 1 6.3-.2 2.2-1.5 4.2-3.3 5.5-1.8 1.3-3.9 2.1-6 2.7-7.9 2.3-16.6 2.7-24.3-.3-5-1.9-9.5-5.4-12.5-9.9-1.4-2-2.9-4.8-3.2-7.2-.2-1.4.5-2.6.7-4 .1-1.8 0-3.5-.3-5.2z"></path><path fill="none" stroke="#000" stroke-linecap="round" stroke-linejoin="round" stroke-miterlimit="10" stroke-width="1.607" d="M31.6 30.4h0"></path><path fill="#9495fa" stroke="#0000db" stroke-linecap="round" stroke-linejoin="round" stroke-miterlimit="10" stroke-width="1.371" d="M47.9 31v.7c-.4-.1-.8-.2-1.2-.2-1.9 0-3.5 1.3-3.9 3.1h-5.7c-.3-2.4-2.3-4.3-4.8-4.3-.2 0-.5 0-.7.1.1-.8.3-1.5.7-2.1.9-1.7 2.7-2.8 4.8-2.8h.5l2.1 3.9 2.1-3.9h.5c3.2 0 5.6 2.5 5.6 5.5z"></path><path fill="#fed3be" stroke="#0000db" stroke-linecap="round" stroke-linejoin="round" stroke-miterlimit="10" stroke-width="1.371" d="M43.7 19.5c0 2.2-1.8 3.9-3.9 3.9-1.8 0-3.4-1.2-3.8-2.9-.1-.3-.1-.7-.1-1 0-2.2 1.8-3.9 3.9-3.9h.1c2.1 0 3.8 1.8 3.8 3.9z"></path><path fill="#ff9d23" stroke="#0000db" stroke-linecap="round" stroke-linejoin="round" stroke-miterlimit="10" stroke-width="1.371" d="M32.3 28.3c-.4.6-.6 1.4-.7 2.1-2.2.3-3.9 2.1-4.1 4.3H21c-.4-1.7-1.9-2.9-3.7-2.9-.2 0-.5 0-.7.1V31c0-3.1 2.5-5.5 5.5-5.5h.5l2.1 3.9 2.1-3.9h.5c2.3 0 4.1 1.1 5 2.8z"></path><path fill="#fed3be" stroke="#0000db" stroke-linecap="round" stroke-linejoin="round" stroke-miterlimit="10" stroke-width="1.371" d="M28.8 19.5c0 .3 0 .7-.1 1-.4 1.7-2 2.9-3.8 2.9-2.2 0-3.9-1.8-3.9-3.9 0-2.1 1.7-3.9 3.9-3.9h.1c2 0 3.8 1.7 3.8 3.9z"></path><path fill="#9495fa" stroke="#0000db" stroke-linecap="round" stroke-linejoin="round" stroke-miterlimit="10" stroke-width="1.371" d="M42.4 49.4v4.5H22.2v-4.5c0-2.1.9-3.9 2.4-5.2 1.2-1 2.7-1.6 4.4-1.6h.7l2.6 4.8 2.6-4.8h.7c1.5 0 2.9.5 4 1.3 1.7 1.2 2.8 3.2 2.8 5.5z"></path><path fill="#fed3be" stroke="#0000db" stroke-linecap="round" stroke-linejoin="round" stroke-miterlimit="10" stroke-width="1.371" d="M37.1 35.2c0 2.7-2.2 4.8-4.8 4.8-2.7 0-4.8-2.2-4.8-4.8v-.5c.2-2.2 1.9-3.9 4.1-4.3.2 0 .5-.1.7-.1 2.5 0 4.5 1.9 4.8 4.3v.6z"></path><path fill="#f86c66" stroke="#0000db" stroke-linecap="round" stroke-linejoin="round" stroke-miterlimit="10" stroke-width="1.371" d="M39.8 15.6h0c-2.2 0-4 1.8-4 3.9 0 .3 0 .7.1 1h-7.3c.1-.3.1-.7.1-1 0-2.2-1.8-3.9-3.9-3.9h-.1c.6-2.2 2.6-3.8 5-3.8h.5l2 3.7 2-3.7h.5c2.5 0 4.5 1.6 5.1 3.8z"></path><path fill="#fed3be" stroke="#0000db" stroke-linecap="round" stroke-linejoin="round" stroke-miterlimit="10" stroke-width="1.371" d="M36 6.2c0 2-1.7 3.7-3.7 3.7-2.1 0-3.7-1.7-3.7-3.7s1.7-3.7 3.7-3.7c2.1-.1 3.7 1.6 3.7 3.7z"></path><path fill="#f86c66" stroke="#0000db" stroke-linecap="round" stroke-linejoin="round" stroke-miterlimit="10" stroke-width="1.371" d="M24.6 44.2c-1.5 1.2-2.4 3.1-2.4 5.2v.8H9.5v-3.5c0-2.9 2.4-5.3 5.3-5.3h.5l2 3.7 2-3.7h.5c2.2-.1 3.9 1.1 4.8 2.8z"></path><path fill="#fed3be" stroke="#0000db" stroke-linecap="round" stroke-linejoin="round" stroke-miterlimit="10" stroke-width="1.371" d="M21.1 35.6c0 2.1-1.7 3.8-3.8 3.8-2.1 0-3.8-1.7-3.8-3.8 0-1.8 1.3-3.4 3.1-3.7.2 0 .5-.1.7-.1 1.8 0 3.3 1.2 3.7 2.9.1.3.1.6.1.9z"></path><path fill="#ff9d23" stroke="#0000db" stroke-linecap="round" stroke-linejoin="round" stroke-miterlimit="10" stroke-width="1.371" d="M55.1 47.4v3.7H42.4v-1.8c0-2.3-1.1-4.3-2.8-5.5 1-1.3 2.6-2.2 4.4-2.2h.5l2.2 4 2.2-4h.5c3.2.1 5.7 2.6 5.7 5.8z"></path><path fill="#fed3be" stroke="#0000db" stroke-linecap="round" stroke-linejoin="round" stroke-miterlimit="10" stroke-width="1.371" d="M50.8 35.6c0 2.2-1.8 4-4 4s-4-1.8-4-4c0-.3 0-.6.1-.9.4-1.8 2-3.1 3.9-3.1.4 0 .8.1 1.2.2 1.6.4 2.8 2 2.8 3.8z"></path><path fill="none" stroke="#ff9d23" stroke-linecap="round" stroke-linejoin="round" stroke-miterlimit="10" stroke-width="1.62" d="m6 10.2 1.9-1.9 1.6 1.6"></path><path fill="none" stroke="#9495fa" stroke-linecap="round" stroke-linejoin="round" stroke-miterlimit="10" stroke-width="1.62" d="m59.7 45.3 1.8-1.8 1.7 1.6M3.3 17.3.8 19.8"></path><path fill="none" stroke="#ff4b4d" stroke-linecap="round" stroke-linejoin="round" stroke-miterlimit="10" stroke-width="1.62" d="m59 23.4-2.9 2.8"></path><path fill="none" stroke="#0000db" stroke-linecap="round" stroke-linejoin="round" stroke-miterlimit="10" stroke-width="1.62" d="m9.2 58.6-2.8 2.8"></path><path fill="none" stroke="#ff9d23" stroke-linecap="round" stroke-linejoin="round" stroke-miterlimit="10" stroke-width="1.62" d="m58.2 54.5-2.9 2.9"></path></svg>